<?xml version="1.0" standalone="no"?>
<!DOCTYPE svg PUBLIC "-//W3C//DTD SVG 20010904//EN"
 "http://www.w3.org/TR/2001/REC-SVG-20010904/DTD/svg10.dtd">
<svg version="1.0" xmlns="http://www.w3.org/2000/svg"
 width="260.000000pt" height="260.000000pt" viewBox="0 0 260.000000 260.000000"
 preserveAspectRatio="xMidYMid meet">
<metadata>
Created by potrace 1.11, written by Peter Selinger 2001-2013
</metadata>
<g transform="translate(0.000000,260.000000) scale(0.100000,-0.100000)"
fill="#000000" stroke="none">
<path d="M10 2267 l0 -334 88 0 c170 -1 308 -59 433 -183 223 -220 249 -547
64 -806 -112 -156 -307 -254 -507 -254 l-78 0 2 -338 3 -337 122 -3 c109 -2
122 -1 127 15 3 10 15 83 27 163 12 80 27 150 33 156 13 12 280 124 297 124 6
0 69 -43 140 -95 70 -52 131 -95 136 -95 5 0 59 51 122 114 80 80 111 118 105
127 -4 8 -48 69 -96 135 -48 67 -88 128 -88 135 0 7 27 79 61 159 l60 146 165
24 164 24 0 168 0 167 -32 6 c-18 3 -93 16 -166 28 l-133 22 -64 154 -63 153
100 135 100 136 -119 118 -118 119 -137 -100 -138 -99 -147 61 c-82 33 -151
64 -155 67 -4 3 -17 76 -30 161 l-23 155 -128 3 -127 3 0 -334z"/>
<path d="M2040 2549 c-63 -28 -115 -51 -116 -52 -2 -1 11 -34 28 -72 38 -90
78 -211 78 -239 0 -14 -50 -71 -150 -171 l-149 -149 -70 12 c-39 6 -112 25
-164 42 -52 16 -98 30 -104 30 -7 0 -66 -135 -108 -251 -5 -12 8 -22 52 -39
75 -30 191 -87 226 -112 l27 -19 0 -215 0 -214 -82 -54 c-46 -29 -115 -70
-155 -90 l-71 -35 56 -131 c30 -71 60 -130 65 -130 5 0 49 16 97 35 47 19 117
43 153 52 l67 18 151 -150 151 -150 -6 -60 c-2 -33 -20 -111 -39 -173 -19 -62
-30 -115 -26 -118 15 -9 253 -104 261 -104 5 0 8 6 8 13 0 19 86 205 115 249
l25 38 94 0 c52 0 101 3 110 6 14 5 16 32 16 190 l0 184 -38 0 c-59 0 -186 36
-255 72 -82 43 -212 173 -255 255 -67 128 -90 302 -57 441 31 132 121 269 228
349 103 76 178 105 340 128 l37 6 0 184 0 185 -105 0 -105 0 -35 48 c-19 26
-58 91 -87 144 -40 74 -58 97 -73 97 -11 0 -72 -23 -135 -50z"/>
</g>
</svg>
